<mxfile host="Electron" agent="Mozilla/5.0 (Windows NT 10.0; Win64; x64) AppleWebKit/537.36 (KHTML, like Gecko) draw.io/25.0.2 Chrome/128.0.6613.186 Electron/32.2.5 Safari/537.36" version="25.0.2">
  <diagram name="Page-1" id="0ONJ9Oj3fz9g0BdMbFKF">
    <mxGraphModel dx="1221" dy="717" grid="1" gridSize="10" guides="1" tooltips="1" connect="1" arrows="1" fold="1" page="1" pageScale="1" pageWidth="850" pageHeight="1100" math="0" shadow="0">
      <root>
        <mxCell id="0" />
        <mxCell id="1" parent="0" />
        <mxCell id="5OvZU9fj-9_roAtyondd-6" style="rounded=0;orthogonalLoop=1;jettySize=auto;html=1;" edge="1" parent="1" source="5OvZU9fj-9_roAtyondd-3" target="5OvZU9fj-9_roAtyondd-5">
          <mxGeometry relative="1" as="geometry" />
        </mxCell>
        <mxCell id="5OvZU9fj-9_roAtyondd-7" style="edgeStyle=none;shape=connector;rounded=0;orthogonalLoop=1;jettySize=auto;html=1;strokeColor=default;align=center;verticalAlign=middle;fontFamily=Helvetica;fontSize=11;fontColor=default;labelBackgroundColor=default;endArrow=classic;" edge="1" parent="1" source="5OvZU9fj-9_roAtyondd-3" target="5OvZU9fj-9_roAtyondd-4">
          <mxGeometry relative="1" as="geometry" />
        </mxCell>
        <mxCell id="5OvZU9fj-9_roAtyondd-3" value="Outil" style="rounded=0;whiteSpace=wrap;html=1;" vertex="1" parent="1">
          <mxGeometry x="350" y="110" width="120" height="60" as="geometry" />
        </mxCell>
        <mxCell id="5OvZU9fj-9_roAtyondd-4" value="Theme" style="rounded=0;whiteSpace=wrap;html=1;" vertex="1" parent="1">
          <mxGeometry x="460" y="220" width="120" height="60" as="geometry" />
        </mxCell>
        <mxCell id="5OvZU9fj-9_roAtyondd-9" value="" style="edgeStyle=none;shape=connector;rounded=0;orthogonalLoop=1;jettySize=auto;html=1;strokeColor=default;align=center;verticalAlign=middle;fontFamily=Helvetica;fontSize=11;fontColor=default;labelBackgroundColor=default;endArrow=classic;" edge="1" parent="1" source="5OvZU9fj-9_roAtyondd-5" target="5OvZU9fj-9_roAtyondd-8">
          <mxGeometry relative="1" as="geometry" />
        </mxCell>
        <mxCell id="5OvZU9fj-9_roAtyondd-5" value="Section[]" style="rounded=0;whiteSpace=wrap;html=1;" vertex="1" parent="1">
          <mxGeometry x="180" y="220" width="120" height="60" as="geometry" />
        </mxCell>
        <mxCell id="5OvZU9fj-9_roAtyondd-11" value="" style="edgeStyle=none;shape=connector;rounded=0;orthogonalLoop=1;jettySize=auto;html=1;strokeColor=default;align=center;verticalAlign=middle;fontFamily=Helvetica;fontSize=11;fontColor=default;labelBackgroundColor=default;endArrow=classic;" edge="1" parent="1" source="5OvZU9fj-9_roAtyondd-8" target="5OvZU9fj-9_roAtyondd-10">
          <mxGeometry relative="1" as="geometry" />
        </mxCell>
        <mxCell id="5OvZU9fj-9_roAtyondd-8" value="Scenario" style="rounded=0;whiteSpace=wrap;html=1;" vertex="1" parent="1">
          <mxGeometry x="180" y="360" width="120" height="60" as="geometry" />
        </mxCell>
        <mxCell id="5OvZU9fj-9_roAtyondd-10" value="Pratique" style="rounded=0;whiteSpace=wrap;html=1;" vertex="1" parent="1">
          <mxGeometry x="180" y="500" width="120" height="60" as="geometry" />
        </mxCell>
      </root>
    </mxGraphModel>
  </diagram>
</mxfile>
